<?xml version="1.0" encoding="UTF-8" standalone="no"?>
<!-- Created with Inkscape (http://www.inkscape.org/) -->

<svg
   xmlns:dc="http://purl.org/dc/elements/1.1/"
   xmlns:cc="http://creativecommons.org/ns#"
   xmlns:rdf="http://www.w3.org/1999/02/22-rdf-syntax-ns#"
   xmlns:svg="http://www.w3.org/2000/svg"
   xmlns="http://www.w3.org/2000/svg"
   xmlns:sodipodi="http://sodipodi.sourceforge.net/DTD/sodipodi-0.dtd"
   xmlns:inkscape="http://www.inkscape.org/namespaces/inkscape"
   id="svg3336"
   version="1.1"
   inkscape:version="0.91 r13725"
   xml:space="preserve"
   width="70.3125"
   height="75"
   viewBox="0 0 70.3125 75"
   sodipodi:docname="safari.svg"><metadata
     id="metadata3342"><rdf:RDF><cc:Work
         rdf:about=""><dc:format>image/svg+xml</dc:format><dc:type
           rdf:resource="http://purl.org/dc/dcmitype/StillImage" /><dc:title></dc:title></cc:Work></rdf:RDF></metadata><defs
     id="defs3340" /><sodipodi:namedview
     pagecolor="#ffffff"
     bordercolor="#666666"
     borderopacity="1"
     objecttolerance="10"
     gridtolerance="10"
     guidetolerance="10"
     inkscape:pageopacity="0"
     inkscape:pageshadow="2"
     inkscape:window-width="640"
     inkscape:window-height="480"
     id="namedview3338"
     showgrid="false"
     inkscape:zoom="7.1466667"
     inkscape:cx="35.15625"
     inkscape:cy="37.5"
     inkscape:window-x="0"
     inkscape:window-y="0"
     inkscape:window-maximized="1"
     inkscape:current-layer="g3344" /><g
     id="g3344"
     inkscape:groupmode="layer"
     inkscape:label="safari"
     transform="matrix(1.25,0,0,-1.25,0,75)"><g
       id="g3346"
       transform="scale(0.24,0.24)"><path
         d="m 138.672,107.91 c 1.953,4.555 2.441,9.278 1.465,14.16 -0.328,1.297 -0.817,2.762 -1.465,4.395 L 125.488,108.887 107.91,95.7031 c 1.953,-0.9765 4.067,-1.6328 6.348,-1.9531 0.976,0 1.953,0 2.93,0 1.625,0 3.246,0.1641 4.882,0.4883 2.602,0.6523 5.043,1.625 7.325,2.9297 4.222,2.6015 7.324,6.18 9.277,10.742 z m -41.0157,21.973 c -3.5899,-5.539 -4.7227,-11.399 -3.418,-17.578 0.3164,-1.305 0.8047,-2.766 1.4648,-4.395 l 13.1839,17.578 17.578,13.184 c -1.953,0.976 -4.078,1.625 -6.348,1.953 -0.976,0 -1.953,0 -2.929,0 -1.637,0 -3.258,-0.168 -4.883,-0.488 -6.188,-1.305 -11.071,-4.723 -14.6487,-10.254 z M 85.9375,234.375 c 1.293,1.953 3.0039,3.172 5.1289,3.664 2.1094,0.484 4.1484,0.074 6.1016,-1.223 2.2695,1.625 3.246,3.418 2.93,5.372 -0.6605,2.601 -3.2582,3.906 -7.8128,3.906 -0.9766,0 -1.9532,-0.168 -2.9297,-0.489 -2.6133,-0.328 -4.7227,-1.304 -6.3477,-2.929 -1.6367,-1.633 -2.2812,-3.098 -1.9531,-4.395 0.6484,-1.953 2.2695,-3.258 4.8828,-3.906 z m 55.6645,-104.492 0,-0.488 29.296,-0.977 -26.367,-12.207 c 0,-3.586 -0.816,-7.16 -2.441,-10.742 l 11.23,-11.719 -15.625,5.3711 c -2.281,-2.6094 -5.054,-4.7188 -8.3,-6.3477 l -0.977,-29.2968 -12.207,26.3672 c -4.234,0.3203 -8.141,1.2968 -11.719,2.9296 l -47.8514,-36.1328 36.1328,47.8514 0,0.488 -29.2968,0.977 26.3672,12.207 c 0,3.578 0.8046,7.156 2.4414,10.742 l -11.2305,11.719 15.625,-5.371 c 2.2695,2.601 5.0433,4.715 8.3003,6.348 l 0.977,29.296 12.207,-26.367 c 4.223,-0.328 8.129,-1.304 11.719,-2.929 l 47.851,36.132 -36.132,-47.851 z m 64.453,-12.695 c 0,3.906 -0.328,7.812 -0.977,11.718 l -19.531,2.93 17.09,10.254 c -4.235,14.648 -11.719,27.344 -22.461,38.086 -17.578,17.25 -38.574,25.879 -62.988,25.879 -3.907,0 -7.813,-0.328 -11.719,-0.977 l -2.93,-19.531 -10.2538,17.09 C 77.6367,198.402 64.9414,190.918 54.1992,180.176 36.9375,162.598 28.3203,141.602 28.3203,117.188 c 0,-3.907 0.3164,-7.813 0.9766,-11.719 L 48.8281,102.539 31.7383,92.2852 C 35.9609,77.6367 43.457,64.9414 54.1992,54.1992 71.7773,36.9414 92.7734,28.3203 117.188,28.3203 c 3.906,0 7.812,0.3203 11.718,0.9766 l 2.93,19.5312 10.254,-17.0898 c 14.648,4.2265 27.344,11.7187 38.086,22.4609 17.25,17.5781 25.879,38.5742 25.879,62.9888 z m -6.102,82.765 c 22.949,-22.949 34.422,-50.539 34.422,-82.765 0,-32.2271 -11.473,-59.8169 -34.422,-82.7661 C 177.004,11.4727 149.414,0 117.188,0 84.9609,0 57.3711,11.4727 34.4258,34.4219 11.4766,57.3711 0,84.9609 0,117.188 c 0,26.367 7.97266,49.964 23.9258,70.8 15.9414,20.828 36.293,34.828 61.0351,41.992 l 0,0.489 c -4.2343,0.976 -6.6757,3.25 -7.3242,6.836 -0.6601,2.601 0.0742,5.125 2.1992,7.566 2.1094,2.442 4.9532,3.984 8.543,4.641 1.293,0.32 2.6016,0.488 3.9063,0.488 6.5078,0 10.2538,-2.441 11.2308,-7.324 0.976,-3.258 -0.328,-6.188 -3.9066,-8.789 0,-0.328 0.1601,-0.657 0.4886,-0.977 5.531,0.977 11.23,1.465 17.09,1.465 32.226,0 59.816,-11.477 82.765,-34.422"
         style="fill:#040606;fill-opacity:1;fill-rule:nonzero;stroke:none"
         id="path3348"
         inkscape:connector-curvature="0" /></g></g></svg>